<svg xmlns="http://www.w3.org/2000/svg" width="511.1" height="448" viewBox="0 0 511.1 448"><path d="M447.1,32H63.1C28.64,32-.009,60.65-.009,96V416c0,35.35,28.65,64,63.1,64h384a64,64,0,0,0,64-64V96A63.445,63.445,0,0,0,447.1,32Zm-336,64a48,48,0,0,1,48,48c0,26.51-20.6,48-48,48s-48-21.49-48-48S85.48,96,111.1,96Zm335,311.6A15.967,15.967,0,0,1,432,416H82.01a16,16,0,0,1-12.926-25.43l70-96a15.992,15.992,0,0,1,25.846,0l32.46,44.51,93.3-139.1A15.119,15.119,0,0,1,304,192a16.047,16.047,0,0,1,13.31,7.125l128,192A16,16,0,0,1,446.1,407.6Z" transform="translate(0.009 -32)" fill="#f2bc8d"/></svg>